# xmcd
#
# Track frame offsets:
#	150
#	17181
#	38422
#	57741
#	78843
#	94455
#	118496
#	137204
#	150888
#	160149
#	180387
#	196996
#	223513
#	237577
#	247116
#	267861
#	287488
#	308284
#	319690
#
# Disc length: 4722 seconds
#
# Revision: 1
# Processed by: cddbd v1.5.2PL0 Copyright (c) Steve Scherf et al.
# Submitted via: EasyCDDAExtractor 7.0.5.1
#
DISCID=05127013
DTITLE=Juni and The Band - Juni and The Band - Oczko Live 28.11.2003
DYEAR=2003
DGENRE=Country
TTITLE0=Powitanie - Oczko live
TTITLE1=Clementine - Oczko live
TTITLE2=Can You Hear Me... - Oczko live
TTITLE3=Travel In Mind - Oczko live
TTITLE4=Yambalaya - Oczko live
TTITLE5=Blue Moon Of Kentucky - Oczko live
TTITLE6=Poor Wayfaring Stranger  - Oczko live
TTITLE7=Piosenka o polach Luisiany - Oczko live
TTITLE8=Shiu Shiu Shiu Shiuaua- Oczko live
TTITLE9=Banks of The Ohio - Oczko live
TTITLE10=Will The Cirkle Be Unbroken - Oczko live
TTITLE11=Amazing Grace - Oczko live
TTITLE12=When the Saints Go Marching In - Oczko live
TTITLE13=instr. - Oczko live
TTITLE14=Molly Darling - Oczko live
TTITLE15=Nobody Loves Me - Oczko live
TTITLE16=Midnight Special - Oczko live
TTITLE17=Blue Eyes Cryin' In The Rain - Oczko live
TTITLE18=Litewska w Chlabiczówce
EXTD=
EXTT0=
EXTT1=
EXTT2=
EXTT3=
EXTT4=
EXTT5=
EXTT6=
EXTT7=
EXTT8=
EXTT9=
EXTT10=
EXTT11=
EXTT12=
EXTT13=
EXTT14=
EXTT15=
EXTT16=
EXTT17=
EXTT18=
PLAYORDER=
